<svg width="47" height="47" viewBox="0 0 47 47" fill="none" xmlns="http://www.w3.org/2000/svg">
<circle cx="21" cy="26" r="21" fill="#EEEEEE"/>
<path d="M32.375 30.875L26.6875 27.625V24.375L32.375 21.125V30.875Z" stroke="#0E0E0E" stroke-width="2" stroke-linecap="round" stroke-linejoin="round"/>
<path d="M11.5449 15.4375L30.7495 36.5625" stroke="#0E0E0E" stroke-width="2" stroke-linecap="round" stroke-linejoin="round"/>
<path d="M19.2617 19.0938H23.4377C24.2996 19.0938 25.1263 19.4362 25.7358 20.0457C26.3453 20.6551 26.6877 21.4818 26.6877 22.3438V27.625" stroke="#0E0E0E" stroke-width="2" stroke-linecap="round" stroke-linejoin="round"/>
<path d="M26.6875 32.0938C26.6875 32.3092 26.6019 32.5159 26.4495 32.6683C26.2972 32.8206 26.0905 32.9062 25.875 32.9062H12.875C12.013 32.9062 11.1864 32.5638 10.5769 31.9543C9.96741 31.3449 9.625 30.5182 9.625 29.6562V19.9062C9.625 19.6908 9.7106 19.4841 9.86298 19.3317C10.0153 19.1794 10.222 19.0938 10.4375 19.0938H14.8693" stroke="#0E0E0E" stroke-width="2" stroke-linecap="round" stroke-linejoin="round"/>
<circle cx="37" cy="11" r="10" fill="#E30C40"/>
<path d="M36.4583 12.672L36.2343 6.96L36.1863 5.28H37.8183L37.7703 6.96L37.5463 12.672H36.4583ZM37.0023 16.192C36.7036 16.192 36.4476 16.0853 36.2343 15.872C36.021 15.6587 35.9143 15.3867 35.9143 15.056C35.9143 14.7147 36.021 14.4373 36.2343 14.224C36.4476 14.0107 36.7036 13.904 37.0023 13.904C37.3116 13.904 37.5676 14.0107 37.7703 14.224C37.9836 14.4373 38.0903 14.7147 38.0903 15.056C38.0903 15.3867 37.9836 15.6587 37.7703 15.872C37.5676 16.0853 37.3116 16.192 37.0023 16.192Z" fill="white"/>
</svg>
