<svg width="46" height="47" viewBox="0 0 46 47" fill="none" xmlns="http://www.w3.org/2000/svg">
<circle cx="21" cy="26" r="21" fill="#EEEEEE"/>
<path d="M25.9187 31.4114C24.9215 32.3176 23.6934 32.9307 22.3698 33.1831C21.0463 33.4354 19.6787 33.3172 18.4181 32.8415C17.1574 32.3657 16.0527 31.551 15.2259 30.4871C14.3991 29.4232 13.8822 28.1516 13.7324 26.8125" stroke="#0E0E0E" stroke-width="2" stroke-linecap="round" stroke-linejoin="round"/>
<path d="M23.7323 29.0065C22.9853 29.6872 22.0107 30.0639 21 30.0625H21C19.9226 30.0625 18.8892 29.6345 18.1274 28.8726C17.3655 28.1108 16.9375 27.0774 16.9375 26V21.5315" stroke="#0E0E0E" stroke-width="2" stroke-linecap="round" stroke-linejoin="round"/>
<path d="M21 33.3125V36.5625" stroke="#0E0E0E" stroke-width="2" stroke-linecap="round" stroke-linejoin="round"/>
<path d="M12.875 17.0625L29.125 34.9375" stroke="#0E0E0E" stroke-width="2" stroke-linecap="round" stroke-linejoin="round"/>
<path d="M17.543 17.3656C17.9068 16.7759 18.4155 16.2891 19.0207 15.9516C19.6259 15.6141 20.3073 15.4371 21.0003 15.4375H21.0003C21.5338 15.4375 22.062 15.5426 22.5549 15.7467C23.0478 15.9509 23.4956 16.2501 23.8729 16.6274C24.2501 17.0046 24.5494 17.4525 24.7535 17.9453C24.9577 18.4382 25.0628 18.9665 25.0628 19.5V25.6373" stroke="#0E0E0E" stroke-width="2" stroke-linecap="round" stroke-linejoin="round"/>
<path d="M28.2677 26.8125C28.1978 27.4465 28.0448 28.0685 27.8125 28.6625" stroke="#0E0E0E" stroke-width="2" stroke-linecap="round" stroke-linejoin="round"/>
<circle cx="36" cy="11" r="10" fill="#E30C40"/>
<path d="M35.4583 12.672L35.2343 6.96L35.1863 5.28H36.8183L36.7703 6.96L36.5463 12.672H35.4583ZM36.0023 16.192C35.7036 16.192 35.4476 16.0853 35.2343 15.872C35.021 15.6587 34.9143 15.3867 34.9143 15.056C34.9143 14.7147 35.021 14.4373 35.2343 14.224C35.4476 14.0107 35.7036 13.904 36.0023 13.904C36.3116 13.904 36.5676 14.0107 36.7703 14.224C36.9836 14.4373 37.0903 14.7147 37.0903 15.056C37.0903 15.3867 36.9836 15.6587 36.7703 15.872C36.5676 16.0853 36.3116 16.192 36.0023 16.192Z" fill="white"/>
</svg>
