<svg width="42" height="42" viewBox="0 0 42 42" fill="none" xmlns="http://www.w3.org/2000/svg">
<circle cx="21" cy="21" r="21" fill="#849949"/>
<path d="M12.1111 16.8833H26.5556L24.7778 18.295C24.661 18.3877 24.5627 18.5038 24.4884 18.6367C24.414 18.7697 24.3651 18.9168 24.3445 19.0697C24.3239 19.2227 24.3319 19.3784 24.3681 19.5281C24.4043 19.6777 24.468 19.8183 24.5556 19.9419C24.6591 20.088 24.7933 20.2066 24.9475 20.2883C25.1018 20.37 25.272 20.4125 25.4444 20.4125C25.6849 20.4125 25.9188 20.3299 26.1111 20.1772L30.5556 16.648C30.6915 16.5383 30.8016 16.3968 30.8774 16.2345C30.9532 16.0723 30.9927 15.8938 30.9927 15.7128C30.9927 15.5318 30.9532 15.3533 30.8774 15.1911C30.8016 15.0289 30.6915 14.8874 30.5556 14.7776L26.2667 11.2484C26.0339 11.0565 25.7386 10.9704 25.4458 11.009C25.1531 11.0476 24.8868 11.2078 24.7056 11.4543C24.5243 11.7008 24.443 12.0134 24.4795 12.3233C24.5159 12.6333 24.6672 12.9152 24.9 13.1071L26.6444 14.5305H12.1111C11.8164 14.5305 11.5338 14.6545 11.3254 14.8751C11.1171 15.0957 11 15.3949 11 15.7069C11 16.0189 11.1171 16.3181 11.3254 16.5388C11.5338 16.7594 11.8164 16.8833 12.1111 16.8833ZM29.8889 25.1181H15.4444L17.2222 23.7064C17.458 23.5192 17.6138 23.2405 17.6555 22.9316C17.6972 22.6228 17.6213 22.309 17.4444 22.0594C17.2676 21.8098 17.0044 21.6448 16.7127 21.6007C16.421 21.5566 16.1246 21.637 15.8889 21.8242L11.4444 25.3533C11.3085 25.4631 11.1984 25.6046 11.1226 25.7668C11.0468 25.929 11.0073 26.1076 11.0073 26.2886C11.0073 26.4695 11.0468 26.6481 11.1226 26.8103C11.1984 26.9725 11.3085 27.114 11.4444 27.2238L15.7333 30.753C15.9273 30.9123 16.1656 30.9992 16.4111 31C16.5808 30.9996 16.7481 30.958 16.9003 30.8785C17.0524 30.7989 17.1854 30.6836 17.2889 30.5412C17.4693 30.296 17.5507 29.9851 17.5153 29.6765C17.48 29.3679 17.3306 29.0867 17.1 28.8943L15.3556 27.4708H29.8889C30.1836 27.4708 30.4662 27.3469 30.6746 27.1263C30.8829 26.9057 31 26.6064 31 26.2944C31 25.9824 30.8829 25.6832 30.6746 25.4626C30.4662 25.242 30.1836 25.1181 29.8889 25.1181Z" fill="white"/>
</svg>
